<svg id="Слой_1" data-name="Слой 1" xmlns="http://www.w3.org/2000/svg" viewBox="0 0 1497.18 185.81"><defs><style>.cls-1{fill:#f5f5ff;}.cls-2{fill:#fff5ff;}</style></defs><title>logo</title><path class="cls-1" d="M161.78,219.83H93v69.58H51.6V112.06H93v64.66h68.74V112.06h41.44V289.41H161.78Z" transform="translate(-51.6 -106.87)"/><rect class="cls-2" x="193.06" y="142.16" width="130.9" height="40.38"/><rect class="cls-2" x="193.06" y="70.13" width="77.88" height="40.38"/><rect class="cls-2" x="193.06" y="5.19" width="130.41" height="40.38"/><path class="cls-1" d="M638.58,219.56V231c-9.26,34.38-42.66,61.66-85.32,61.66-50.46,0-87.51-36.29-87.51-93s37.05-92.77,87.51-92.77c40.47,0,74.35,22.92,85.32,61.67V180h-42.9c-6.1-19.1-21.45-30-42.42-30-27.3,0-45.34,18.56-45.34,49.66,0,31.38,18,49.93,45.34,49.93,21,0,36.57-10.91,42.66-30Z" transform="translate(-51.6 -106.87)"/><path class="cls-1" d="M775.08,155.17H712.44V289.41H671V112.06H816.52V289.41H775.08Z" transform="translate(-51.6 -106.87)"/><path class="cls-1" d="M907.2,289.41H858V112.06H899.4V231.84h1.71L965,112.06h49.23V289.41H972.78V169.63h-1.95Z" transform="translate(-51.6 -106.87)"/><path class="cls-1" d="M1092.22,164.6V289.41h41.44V164.6Z" transform="translate(-51.6 -106.87)"/><rect class="cls-1" x="986.99" y="5.19" width="148.7" height="40.38"/><path class="cls-1" d="M1374.74,219.56V231c-9.26,34.38-42.66,61.66-85.32,61.66-50.46,0-87.51-36.29-87.51-93s37-92.77,87.51-92.77c40.47,0,74.35,22.92,85.32,61.67V180h-42.9c-6.1-19.1-21.45-30-42.42-30-27.3,0-45.34,18.56-45.34,49.66,0,31.38,18,49.93,45.34,49.93,21,0,36.57-10.91,42.66-30Z" transform="translate(-51.6 -106.87)"/><path class="cls-1" d="M1548.78,289.41h-41.44V232.93h-31.68l-33.4,56.48H1397.9v-10.1L1432,225.56c-21.2-7.91-35.1-27.56-35.1-54.84,0-35.74,24.13-58.66,56.8-58.66h95.06Zm-93.84-134.24c-9.27,0-15.36,6.27-15.36,17.46,0,10.91,6.09,17.19,15.36,17.19h52.4V155.17Z" transform="translate(-51.6 -106.87)"/></svg>